<svg width="50" height="60" viewBox="0 0 50 60" fill="none" xmlns="http://www.w3.org/2000/svg">
<path d="M41.2129 24.082C41.2129 15.1758 33.9707 7.93359 25.0645 7.93359C16.1582 7.93359 8.91602 15.1758 8.91602 24.082C8.91602 32.9883 16.1582 40.2305 25.0645 40.2305C33.9707 40.2305 41.2129 32.9883 41.2129 24.082ZM25.0645 38.5195C17.0957 38.5195 10.627 32.0391 10.627 24.082C10.627 16.1133 17.1074 9.64453 25.0645 9.64453C33.0332 9.64453 39.502 16.125 39.502 24.082C39.502 32.0391 33.0215 38.5195 25.0645 38.5195Z" fill="black"/>
<path d="M20.9512 23.4258C23.0137 23.4258 24.6777 21.75 24.6777 19.6992C24.6777 17.6484 23.002 15.9727 20.9512 15.9727C18.9004 15.9727 17.2246 17.6484 17.2246 19.6992C17.2246 21.75 18.8887 23.4258 20.9512 23.4258ZM20.9512 17.6719C22.0645 17.6719 22.9785 18.5742 22.9785 19.6992C22.9785 20.8242 22.0762 21.7266 20.9512 21.7266C19.8262 21.7266 18.9238 20.8242 18.9238 19.6992C18.9238 18.5742 19.8262 17.6719 20.9512 17.6719Z" fill="black"/>
<path d="M31.9082 16.8163C31.9082 16.5702 31.8027 16.3241 31.5918 16.1601C31.2285 15.8554 30.6895 15.914 30.3848 16.2773L18.4316 30.7968C18.3027 30.9609 18.2324 31.1484 18.2324 31.3359C18.2324 31.582 18.3379 31.8281 18.5488 31.9921C18.7129 32.121 18.9004 32.1913 19.0879 32.1913C19.334 32.1913 19.5801 32.0859 19.7441 31.8749L31.709 17.3437C31.8379 17.2031 31.9082 17.0038 31.9082 16.8163Z" fill="black"/>
<path d="M29.1777 24.7383C27.1152 24.7383 25.4512 26.4141 25.4512 28.4648C25.4512 30.5156 27.127 32.1914 29.1777 32.1914C31.2402 32.1914 32.9043 30.5156 32.9043 28.4648C32.9043 26.4141 31.2402 24.7383 29.1777 24.7383ZM29.1777 30.4922C28.0645 30.4922 27.1504 29.5898 27.1504 28.4648C27.1504 27.3516 28.0527 26.4375 29.1777 26.4375C30.3027 26.4375 31.2051 27.3398 31.2051 28.4648C31.2051 29.5781 30.291 30.4922 29.1777 30.4922Z" fill="black"/>
<path d="M49.4981 53.2734L41.3653 39.0703C41.6934 38.8828 42.045 38.7422 42.42 38.6602C43.8848 38.3438 45.1622 37.418 45.9122 36.1172C46.6622 34.8164 46.8262 33.2461 46.3692 31.8164C45.9356 30.4688 46.334 28.9805 47.3887 28.0195C48.502 27.0117 49.1465 25.5703 49.1465 24.0703C49.1465 22.5703 48.502 21.1289 47.3887 20.1211C46.334 19.1719 45.9356 17.6836 46.3692 16.3242C46.8262 14.8945 46.6622 13.3242 45.9122 12.0234C45.1622 10.7227 43.8848 9.79688 42.42 9.48047C41.0254 9.1875 39.9356 8.09766 39.6426 6.70312C39.3262 5.23828 38.4004 3.96094 37.0997 3.21094C35.7989 2.46094 34.2286 2.29688 32.7989 2.75391C31.4512 3.1875 29.9629 2.78906 29.002 1.73438C27.9942 0.621094 26.5528 -0.0234375 25.0528 -0.0234375C23.5528 -0.0234375 22.1114 0.621094 21.1036 1.73438C20.1543 2.78906 18.6661 3.1875 17.3067 2.75391C15.877 2.29688 14.3067 2.46094 13.0059 3.21094C11.7051 3.96094 10.7793 5.23828 10.4629 6.70312C10.1817 8.10938 9.09185 9.19922 7.69731 9.49219C6.23247 9.80859 4.95513 10.7344 4.20513 12.0352C3.45513 13.3359 3.29106 14.9062 3.7481 16.3359C4.18169 17.6836 3.78325 19.1719 2.72856 20.1328C1.61528 21.1406 0.970751 22.582 0.970751 24.082C0.970751 25.582 1.61528 27.0234 2.72856 28.0312C3.78325 28.9805 4.18169 30.4688 3.7481 31.8281C3.29106 33.2578 3.45513 34.8281 4.20513 36.1289C4.95513 37.4297 6.23247 38.3555 7.69731 38.6719C8.03716 38.7422 8.36528 38.8711 8.65825 39.0352L0.502001 53.2734C0.32622 53.5781 0.361376 53.9648 0.584033 54.2344C0.806689 54.5039 1.18169 54.6211 1.50981 54.5039L8.48247 52.1836L10.1817 59.3438C10.2637 59.6836 10.545 59.9414 10.8848 59.9883C10.9317 60 10.9668 60 11.002 60C11.3067 60 11.5879 59.8359 11.7403 59.5664L19.8145 45.4922C20.295 45.6914 20.7403 45.9961 21.1036 46.4062C22.1114 47.5195 23.5528 48.1641 25.0528 48.1641C26.5528 48.1641 27.9942 47.5195 29.002 46.4062C29.3418 46.0312 29.752 45.7383 30.1856 45.5391L38.2247 59.5664C38.377 59.8359 38.6583 60 38.9629 60C38.9981 60 39.045 60 39.0801 59.9883C39.4317 59.9414 39.7129 59.6836 39.7833 59.3438L41.4825 52.1836L48.4551 54.5039C48.795 54.6211 49.1583 54.5039 49.3809 54.2344C49.6504 53.9648 49.6739 53.5781 49.4981 53.2734ZM11.3418 56.8477L9.92388 50.8828C9.86528 50.6484 9.71294 50.4492 9.51372 50.332C9.30278 50.2148 9.05669 50.1914 8.83403 50.2734L3.09185 52.1836L9.95903 40.207C10.2051 40.582 10.3809 40.9922 10.4747 41.4375C10.7911 42.9023 11.7168 44.1797 13.0176 44.9297C14.3184 45.6797 15.8887 45.8438 17.3184 45.3867C17.5411 45.3164 17.7754 45.2695 17.9981 45.2344L11.3418 56.8477ZM27.7481 45.2578C27.0684 46.0195 26.084 46.4531 25.0645 46.4531C24.045 46.4531 23.0723 46.0195 22.3809 45.2578C21.6543 44.4492 20.7051 43.8984 19.6856 43.6523C19.6504 43.6406 19.6036 43.6289 19.5684 43.6289C19.1934 43.5469 18.8067 43.5 18.4317 43.5C17.8809 43.5 17.3301 43.582 16.8028 43.7578C15.8301 44.0742 14.7637 43.957 13.8848 43.4531C13.0059 42.9375 12.3731 42.082 12.1622 41.0859C11.9161 39.9141 11.2715 38.8828 10.3926 38.1445C10.3692 38.1211 10.3458 38.1094 10.3223 38.0859C9.67778 37.5586 8.91606 37.1836 8.07231 36.9961C7.07622 36.7852 6.20903 36.1523 5.70513 35.2734C5.1895 34.3945 5.08403 33.3281 5.40044 32.3555C6.04497 30.3633 5.45903 28.1719 3.90044 26.7656C3.13872 26.0859 2.70513 25.1016 2.70513 24.082C2.70513 23.0625 3.13872 22.0898 3.90044 21.3984C5.45903 19.9922 6.04497 17.8008 5.40044 15.8086C5.08403 14.8359 5.20122 13.7695 5.70513 12.8906C6.22075 12.0117 7.07622 11.3789 8.07231 11.168C10.1231 10.7344 11.7286 9.12891 12.1622 7.07813C12.3731 6.08203 13.0059 5.21484 13.8848 4.71094C14.7637 4.19531 15.8301 4.08984 16.8028 4.40625C18.795 5.05078 20.9864 4.46484 22.3926 2.90625C23.0723 2.14453 24.0567 1.71094 25.0762 1.71094C26.0958 1.71094 27.0684 2.14453 27.7598 2.90625C29.1661 4.46484 31.3575 5.05078 33.3497 4.40625C34.3223 4.08984 35.3887 4.20703 36.2676 4.71094C37.1465 5.22656 37.7793 6.08203 37.9903 7.07813C38.4239 9.12891 40.0293 10.7344 42.0801 11.168C43.0762 11.3789 43.9434 12.0117 44.4473 12.8906C44.9629 13.7695 45.0684 14.8359 44.752 15.8086C44.1075 17.8008 44.6934 19.9922 46.252 21.3984C47.0137 22.0781 47.4473 23.0625 47.4473 24.082C47.4473 25.1016 47.0137 26.0742 46.252 26.7656C44.6934 28.1719 44.1075 30.3633 44.752 32.3555C45.0684 33.3281 44.9512 34.3945 44.4473 35.2734C43.9317 36.1523 43.0762 36.7852 42.0801 36.9961C41.1895 37.1836 40.3692 37.6055 39.7129 38.1797C39.7012 38.1914 39.6778 38.2031 39.6661 38.2266C38.834 38.9648 38.2364 39.9609 37.9903 41.0859C37.7793 42.082 37.1465 42.9492 36.2676 43.4531C35.3887 43.9688 34.3223 44.0742 33.3497 43.7578C32.3887 43.4531 31.3926 43.4297 30.4434 43.6523C30.4083 43.6641 30.3731 43.6641 30.3379 43.6758C29.3536 43.9453 28.4512 44.4844 27.7481 45.2578ZM41.1661 50.2734C40.9434 50.2031 40.6856 50.2266 40.4864 50.332C40.2754 50.4492 40.1231 50.6484 40.0762 50.8828L38.6582 56.8477L31.9903 45.2227C32.2598 45.2461 32.5411 45.293 32.8106 45.3867C34.2403 45.8438 35.8106 45.6797 37.1114 44.9297C38.4122 44.1797 39.3379 42.9023 39.6543 41.4375C39.7364 41.0273 39.9004 40.6523 40.1114 40.3008L46.9082 52.1836L41.1661 50.2734Z" fill="black"/>
</svg>
