<svg width="120" height="37" viewBox="0 0 120 37" fill="none" xmlns="http://www.w3.org/2000/svg">
<path d="M1.0402 9.28C1.0402 18.44 20.2802 17.88 20.2802 25.44C20.2802 28.56 15.5602 30.16 10.7602 30.16C5.8402 30.16 0.800196 28.48 0.800196 25.16C0.800196 22.8 3.2402 19.88 7.2002 17.72L6.7602 17.44C2.7602 19.24 0.000195384 22.36 0.000195384 25.12C0.000195384 28.76 5.3602 30.72 10.9602 30.72C17.0802 30.72 23.4402 28.4 23.4402 23.4C23.4402 15.48 3.7202 15.12 3.7202 7.44C3.7202 4 6.9202 2.08 10.4002 2.08C14.6802 2.08 19.3202 5 18.8002 11.44L22.4002 8.12C22.4002 4.08 16.8402 1.56 11.3602 1.56C6.1602 1.56 1.0402 3.88 1.0402 9.28ZM27.4474 30H31.3674V-2.38419e-06H25.9674V0.359998C27.3274 0.359998 27.4474 1.08 27.4474 2.24V30ZM32.0474 14.36V15.04C33.5274 12.88 35.8074 11.16 38.4074 11.16C40.8074 11.16 42.6874 13.28 42.6874 16.64C42.6874 36.68 42.6874 10 42.6874 30H46.5674L46.5274 16.64C46.5274 11.92 43.3274 9.32 39.9674 9.32C36.4074 9.32 33.7274 12 32.0474 14.36ZM71.5814 10H64.5014C55.6614 10 51.0214 16.64 51.0214 22.36C51.0214 26.64 53.6214 30.4 59.1014 30.4C62.7414 30.4 65.5414 28.4 66.8614 24.36V23.2C66.1014 26.16 63.7014 28.16 60.6214 28.16C56.9014 28.16 55.1014 25.16 55.1014 21.64C55.1014 16.64 58.7414 10.6 65.5414 10.56H67.7014C67.7014 28.92 67.7014 10.56 67.7014 30H71.5814V10ZM81.8521 14.36V15.04C83.3321 12.88 85.6121 11.16 88.2121 11.16C90.6121 11.16 92.4921 13.28 92.4921 16.64C92.4921 36.68 92.4921 10 92.4921 30H96.3721L96.3321 16.64C96.3321 11.92 93.1321 9.32 89.7721 9.32C86.2121 9.32 83.5321 12 81.8521 14.36ZM81.1721 30V10H75.8121V10.36C77.1721 10.36 77.2921 11.12 77.2921 12.24V15.36C77.2921 26 77.2921 12.28 77.2921 30H81.1721ZM105.626 24.92V10.4H110.266V10H105.626V6.52H105.266C105.266 10 102.186 10 99.0261 10V10.4H101.666V24.8C101.666 29.12 103.306 30.4 106.106 30.4C108.466 30.4 110.026 27.84 111.306 25.48L111.106 25.28C110.306 26.56 108.706 27.64 107.466 27.64C106.426 27.64 105.626 26.92 105.626 24.92ZM101.666 10.36C100.906 10.36 99.8661 10.36 99.7061 10.36H101.666ZM115.228 2.56C114.548 3.24 114.908 4.84 116.108 6.36L116.948 7.4L117.788 6.36C119.028 4.84 119.388 3.24 118.708 2.56C118.268 2.12 117.628 1.92 116.988 1.92C116.308 1.92 115.668 2.12 115.228 2.56ZM118.828 30V10H113.428V10.36C114.788 10.36 114.908 11.12 114.908 12.24V30H118.828Z" fill="#BA936F"/>
</svg>
